<svg width="190" height="150" xmlns="http://www.w3.org/2000/svg">
 <!-- Created with Method Draw - http://github.com/duopixel/Method-Draw/ -->

 <g>
  <title>background</title>
  <rect fill="#fff" id="canvas_background" height="152" width="192" y="-1" x="-1"/>
  <g display="none" overflow="visible" y="0" x="0" height="100%" width="100%" id="canvasGrid">
   <rect fill="url(#gridpattern)" stroke-width="0" y="0" x="0" height="100%" width="100%"/>
  </g>
 </g>
 <g>
  <title>Layer 1</title>
  <g id="svg_7">
   <path id="svg_4" d="m144.369429,127.038821c0.403841,-2.348422 0.355556,-4.556378 -0.138272,-6.632647c3.079286,-0.085597 6.167352,-0.228258 9.253223,-0.438957l0.032922,0c4.567352,-0.386283 8.35336,-2.267215 11.358024,-5.644993c3.105624,-3.478738 4.499314,-7.523731 4.183264,-12.141563c-0.243621,-3.643347 -1.503429,-6.814814 -3.775034,-9.523182c1.725103,-0.237037 2.89273,-0.478464 3.50288,-0.713306l0.068038,-0.032922c4.815363,-1.795336 8.500411,-4.90096 11.050754,-9.316872l0.035117,-0.032922c2.804938,-4.780247 2.995885,-9.95775 0.579424,-15.543483l0,0.037311c-2.254046,-5.680109 -7.139643,-9.125925 -14.658984,-10.337448l0.068038,0c-1.097394,-0.2107 -2.311111,-0.366529 -3.636762,-0.478464c0.320439,-0.502606 0.61454,-1.038134 0.882304,-1.6l0.035117,-0.068038c1.865569,-4.113031 2.078464,-8.318244 0.647462,-12.615637c-0.013169,-0.026337 -0.024143,-0.061454 -0.037311,-0.10096c-1.556104,-4.284225 -4.299588,-7.449108 -8.228257,-9.488065l0.035117,0c-3.426063,-1.946776 -8.219478,-2.638134 -14.384636,-2.074074l0,-0.035117c-4.477366,0.364335 -23.032097,4.431275 -55.668583,12.207407c0.092181,-0.158025 0.182167,-0.318244 0.272154,-0.476269l0,0.035117c2.352812,-3.987928 4.154732,-8.373113 5.405761,-13.162139l-0.032922,0.035117c1.490261,-5.344307 0.965706,-11.046364 -1.564883,-17.101782c-2.941015,-7.187928 -8.447736,-10.273799 -16.528943,-9.251028l-0.032922,0c-7.782716,0.765981 -12.813168,5.923731 -15.097941,15.47325c-1.437586,6.08834 -2.866392,10.122359 -4.286419,12.106446l-0.030727,0.035117c-1.573662,1.786557 -4.148148,3.691632 -7.721261,5.713031c-0.021948,0.008779 -0.046091,0.019753 -0.068038,0.032922c-5.111659,2.78738 -9.090809,7.027709 -11.935253,12.718792l0,-0.035117c-0.862551,1.679012 -1.621948,3.399725 -2.280384,5.168724c-2.83347,-1.837037 -5.304801,-2.666666 -7.411796,-2.48011c-7.032098,-0.278738 -12.657338,3.882579 -16.86694,12.47956l0.032922,-0.035117c-2.965158,5.855692 -4.892181,12.350068 -5.78107,19.487516l0,0.035117c-0.864746,7.205486 -0.070233,14.43731 2.379149,21.695472l0.032922,0.035117c2.743484,8.555281 9.635116,13.012894 20.674896,13.364059c0.586008,0.019753 1.130315,-0.059259 1.632922,-0.234842c9.360768,16.469683 28.110835,21.173112 56.243618,14.112482c14.173936,4.613443 28.786829,7.640054 43.836485,9.07764l0.032922,0c4.260082,0.40823 8.138271,-0.781344 11.630178,-3.570919c3.500686,-2.815912 5.585734,-6.371467 6.261728,-10.684224zm-60.055963,-4.183264c-0.891084,-0.291907 -1.786557,-0.31166 -2.68642,-0.068038c-27.647735,7.238408 -44.501506,1.253224 -50.565703,-17.955554c-0.366529,-1.235665 -1.110562,-2.16406 -2.245267,-2.78738c-1.139095,-0.61893 -2.330864,-0.744033 -3.568724,-0.377503c-1.23786,0.364335 -2.16845,1.110562 -2.789575,2.245267c-0.621125,1.139095 -0.744033,2.328669 -0.375309,3.568724c0.116324,0.421399 0.241427,0.840604 0.375309,1.259808c-4.841701,-0.704527 -8.026337,-2.980521 -9.556104,-6.834567l0.035117,0.035117c-1.990672,-5.88203 -2.649108,-11.744307 -1.973114,-17.584635c0.741838,-6.009327 2.352812,-11.485322 4.828532,-16.419203l0.035117,-0.037311c2.229904,-4.556378 5.039231,-6.972839 8.434567,-7.244993c1.207133,0.232647 2.815912,1.185185 4.828532,2.859808c-0.120713,0.689163 -0.219479,1.380521 -0.30727,2.071879c-0.160219,1.283951 0.158025,2.436214 0.952538,3.467764c0.801097,1.020576 1.843621,1.610974 3.127572,1.771193c1.283951,0.160219 2.442798,-0.15583 3.469959,-0.954732c1.018381,-0.798903 1.608779,-1.841426 1.768999,-3.127572c0.610151,-4.973388 2.014815,-9.597805 4.216186,-13.875445l0,-0.035117c1.946776,-3.895747 4.657339,-6.810425 8.127297,-8.737448l0.068038,-0.035117c4.889986,-2.758848 8.35775,-5.41454 10.405486,-7.956104l0.035117,-0.035117c2.194787,-2.47572 4.246913,-7.771742 6.156378,-15.88148c1.158848,-4.859259 3.551166,-7.63786 7.174759,-8.331412l0.035117,0c3.237311,-0.41701 5.46941,0.761591 6.698491,3.537997c1.637311,3.9155 2.023594,7.600548 1.154458,11.052949l-0.035117,0.032922c-1.013992,3.91989 -2.47572,7.512757 -4.38738,10.780795l0,0.035117c-2.348422,4.023045 -3.788203,7.58299 -4.317146,10.67764c-0.028532,0.092181 -0.05048,0.182167 -0.068038,0.272154c-0.030727,0.175583 -0.05487,0.359945 -0.068038,0.544307c-0.10535,1.496845 -0.059259,4.297393 0.136077,8.40384l0,0.065844c0.120713,3.226337 -0.877915,7.27133 -2.991495,12.139368l-0.032922,0c-2.150891,4.760494 -6.266118,8.627709 -12.345678,11.595061c-1.158848,0.572839 -1.953361,1.463923 -2.379149,2.68642c-0.427984,1.220302 -0.359945,2.409876 0.204115,3.573114c0.56845,1.161042 1.466118,1.95775 2.68642,2.381344c1.213717,0.425789 2.403292,0.359945 3.570919,-0.20631c8.432373,-4.104252 14.066391,-9.531961 16.899862,-16.287516l-0.032922,0c2.857613,-6.527297 4.1262,-11.979149 3.807956,-16.357749l0,-0.065844c-0.070233,-1.510014 -0.118519,-2.813717 -0.138272,-3.911111c34.982714,-8.366529 54.775305,-12.753909 59.373384,-13.162139l0,-0.035117c3.902332,-0.342387 6.950891,0.006584 9.147873,1.053498l0.037311,0c1.75144,0.939369 2.987105,2.365981 3.704801,4.286419c0.013169,0.032922 0.024143,0.065844 0.037311,0.098765c0.605761,1.900686 0.502606,3.759671 -0.30727,5.576954c-0.010974,0.024143 -0.024143,0.048285 -0.035117,0.070233c-0.809876,1.668038 -2.078464,2.822496 -3.807956,3.469959l0.035117,-0.037311c-2.811522,1.018381 -5.647188,1.948971 -8.502606,2.789575c-0.085597,0.021948 -0.175583,0.046091 -0.269959,0.068038c-0.445542,0.15583 -1.683402,0.528944 -3.706996,1.123731c-0.103155,0.015364 -0.20631,0.039506 -0.30727,0.068038c-9.812894,2.862003 -22.9048,5.526474 -39.277912,7.99122c-1.286145,0.188752 -2.317695,0.798903 -3.092455,1.834842c-0.768176,1.051303 -1.051303,2.21893 -0.851577,3.505075c0.186557,1.272977 0.798903,2.293553 1.837037,3.063923c1.042524,0.761591 2.199177,1.046914 3.467764,0.849383c16.834018,-2.510837 30.312207,-5.232373 40.43237,-8.162414c10.633744,-1.727298 18.532783,-2.159671 23.701507,-1.29273l0.070233,0c3.728944,0.596982 6.235391,2.186008 7.514951,4.760494l0,0.032922c1.117147,2.578875 1.08203,4.971193 -0.103155,7.179149l0.035117,-0.037311c-1.426612,2.455967 -3.478738,4.192044 -6.156378,5.203841c-3.423868,1.084225 -24.825238,2.559122 -64.201916,4.422496c-0.057064,-0.00439 -0.114129,-0.00439 -0.168999,0c-1.264197,0.052675 -2.330864,0.550892 -3.197805,1.496845c-0.87572,0.948148 -1.297119,2.05871 -1.257613,3.333882c0.046091,1.281756 0.531139,2.37037 1.461728,3.263649c0.9262,0.882304 2.025789,1.314678 3.298765,1.290535c0.057064,0 0.114129,0 0.171193,0c31.648832,-0.498217 48.311657,-0.790123 49.988474,-0.882304l0.065844,0c2.014815,-0.142661 3.783813,0.421399 5.304801,1.698765l0.035117,0.032922c1.534156,1.349794 2.372565,3.031001 2.515226,5.037037c0.138272,2.003841 -0.4631,3.759671 -1.80192,5.269684c-1.33882,1.507819 -3.028806,2.344033 -5.065569,2.515226c-3.186831,0.226063 -6.371467,0.379698 -9.556104,0.476269c-2.256241,0.041701 -4.582716,0.063649 -6.970644,0.065844c-0.223868,-0.019753 -0.449931,-0.019753 -0.680384,0c-11.520438,-0.015364 -24.746226,-0.818656 -39.686143,-2.414266c-1.281756,-0.136077 -2.42524,0.204115 -3.434842,1.020576c-1.011797,0.807682 -1.591221,1.854595 -1.733882,3.127572c-0.136077,1.283951 0.204115,2.42524 1.020576,3.432647c0.807682,1.011797 1.8524,1.593416 3.129767,1.736077c14.645815,1.567078 27.693825,2.392318 39.139641,2.482304c0.019753,0.032922 0.043896,0.065844 0.068038,0.103155c0.994239,1.424417 1.334431,3.059533 1.020576,4.894376l0,0.037311c-0.320439,1.946776 -1.270782,3.553361 -2.857613,4.824142c-1.485871,1.193964 -3.129767,1.729492 -4.929492,1.602195c-14.784087,-1.424417 -29.124827,-4.466392 -43.022219,-9.117146z"/>
   <text transform="matrix(2.194787236071093,0,0,2.194787236071093,0,0) " id="svg_5" font-family="'Helvetica Neue', Helvetica, Arial-Unicode, Arial, Sans-serif" font-weight="bold" font-size="5px" fill="#000000" y="134.736694" x="88.753831">Created by Cristiano Zoucas</text>
   <text transform="matrix(2.194787236071093,0,0,2.194787236071093,0,0) " id="svg_6" font-family="'Helvetica Neue', Helvetica, Arial-Unicode, Arial, Sans-serif" font-weight="bold" font-size="5px" fill="#000000" y="139.736694" x="88.753831">from the Noun Project</text>
  </g>
 </g>
</svg>