<svg width="200" height="157" xmlns="http://www.w3.org/2000/svg">
 <!-- Created with Method Draw - http://github.com/duopixel/Method-Draw/ -->

 <g>
  <title>background</title>
  <rect fill="#fff" id="canvas_background" height="159" width="202" y="-1" x="-1"/>
  <g display="none" overflow="visible" y="0" x="0" height="100%" width="100%" id="canvasGrid">
   <rect fill="url(#gridpattern)" stroke-width="0" y="0" x="0" height="100%" width="100%"/>
  </g>
 </g>
 <g>
  <title>Layer 1</title>
  <g id="svg_7">
   <path id="svg_4" d="m132.303787,142.818103c4.396159,-3.805761 6.566803,-8.375308 6.511934,-13.702057c0,-0.140466 0,-0.280933 0,-0.421399c5.563786,-0.761591 10.679835,-2.818107 15.354732,-6.173936l0.043896,-0.043896c7.135253,-5.276269 10.631549,-11.634567 10.486693,-19.072701c-0.006584,-1.779972 -0.20192,-3.516049 -0.592593,-5.203841c0.649657,-0.421399 1.341015,-0.873525 2.069684,-1.349794c0.085597,-0.076818 0.171193,-0.144856 0.254595,-0.212894c4.710013,-3.294376 7.067215,-8.566255 7.062825,-15.820026c0.166804,-4.044993 -1.255418,-8.162414 -4.268861,-12.347873c1.437586,-0.82963 2.818107,-1.744856 4.143758,-2.747874c0.686968,-0.482853 1.477092,-1.103978 2.368175,-1.86118c0.324829,-0.280933 0.621125,-0.592593 0.888889,-0.932785c0.061454,-0.083402 0.133882,-0.182167 0.212894,-0.296296c6.996982,-6.402194 10.423045,-12.764883 10.275994,-19.070506c0.366529,-6.529492 -3.002469,-12.859258 -10.106995,-18.993689l-0.043896,-0.039506c-11.627983,-10.412071 -26.387927,-12.470781 -44.282027,-6.173936c-0.397256,-0.432373 -0.805487,-0.869136 -1.226886,-1.312483l0,0.043896c-9.099588,-9.492455 -19.110012,-14.189299 -30.029079,-14.086144c-7.710288,-0.208505 -16.480657,3.680658 -26.30672,11.674073l-0.043896,0.043896c-5.822771,4.497119 -10.699588,11.458984 -14.632647,20.89218c-2.372565,-1.266392 -4.753909,-1.843621 -7.148422,-1.733882c-8.746227,-0.344582 -15.738819,4.826337 -20.979971,15.52373l0.043896,-0.043896c-3.685048,7.341563 -6.081755,15.420575 -7.187928,24.234841l0,0.039506c-1.071056,8.961316 -0.085597,17.984087 2.960768,27.068311l0.043896,0.043896c3.169273,9.89849 10.798353,15.378874 22.880657,16.452125c1.235665,2.42524 2.844444,4.964609 4.821948,7.613717l0.041701,0.043896c6.80823,9.711934 18.254045,13.223593 34.341836,10.530589c1.178601,1.341015 2.532784,2.695199 4.062551,4.062551l0,0.043896c6.713854,6.022496 13.691083,8.939368 20.936075,8.755006l0.083402,0c7.416186,-0.144856 13.041426,-1.922634 16.875719,-5.331138c0.021948,-0.041701 0.052675,-0.068038 0.083402,-0.094376zm-15.521535,-45.33772c0.083402,0.048285 0.166804,0.10535 0.252401,0.168999c0.566255,0.335802 1.130315,0.678189 1.692181,1.013992c4.213991,2.537174 8.654046,4.32812 13.320164,5.370644c3.40192,0.765981 6.898216,1.145679 10.488888,1.141289c3.652126,-0.002195 7.148422,-0.496022 10.488888,-1.479287c-0.241427,3.588477 -2.146502,6.705075 -5.710836,9.347599l-0.043896,0.043896c-3.992318,2.851029 -8.474074,4.275446 -13.449656,4.271056c-5.899588,-0.002195 -11.399725,-1.556104 -16.496021,-4.650754l0.043896,0.039506c-5.181893,-3.224142 -7.846364,-7.381069 -7.993415,-12.477365c-0.002195,-2.043347 0.645267,-3.564334 1.944581,-4.565157l0.085597,0c0.56845,-0.364335 1.202743,-0.649657 1.902881,-0.847188c1.060082,0.902058 2.21893,1.777778 3.474348,2.622771zm16.239231,-24.952536c0.234842,0.070233 0.460905,0.125103 0.678189,0.168999c0.61893,0.111934 1.240055,0.223868 1.86118,0.335802l-0.296296,-0.083402c4.617832,1.099588 9.272976,1.49465 13.956652,1.18299l0.041701,0c2.804938,-0.162414 5.612071,-0.56845 8.419204,-1.226886c2.559122,2.758848 3.939643,5.394787 4.145953,7.907818c-0.00439,2.756653 -0.722085,4.854869 -2.157476,6.303429l-0.129492,0.127298c-0.043896,0.026337 -0.083402,0.05487 -0.127298,0.085597c-0.783539,0.504801 -1.516598,1.000823 -2.199177,1.481481l-0.041701,0c-0.77476,0.548697 -1.49465,1.044719 -2.157476,1.479287c-0.068038,0.035117 -0.138272,0.076818 -0.2107,0.127298c-0.331413,0.129492 -0.656241,0.298491 -0.972291,0.506996c-0.228258,0.070233 -0.454321,0.15144 -0.678189,0.252401c-3.287791,1.556104 -6.825788,2.333059 -10.616186,2.326474c-2.721536,-0.00439 -5.372839,-0.300686 -7.951714,-0.884499c-3.450206,-0.763786 -6.735802,-2.074074 -9.854595,-3.935254c-0.561866,-0.337997 -1.125926,-0.678189 -1.692181,-1.016186c-1.501234,-1.051303 -2.769821,-2.179424 -3.805761,-3.382167l0,0.043896c-2.111385,-2.513031 -3.167078,-5.372839 -3.171468,-8.588202c0.002195,-2.170645 0.735254,-3.777229 2.201372,-4.819753l0,-0.043896c1.887517,-1.049108 4.343484,-1.569273 7.359122,-1.562689c2.122359,1.270782 4.5893,2.339643 7.398628,3.213169zm36.290807,-39.163783l0.041701,0.043896c3.86941,3.331687 5.899588,6.658984 6.090535,9.977503c-0.313855,3.478738 -2.554732,7.100137 -6.724828,10.870781c-0.190946,0.184362 -0.373114,0.384088 -0.548697,0.592593c-0.149246,0.182167 -0.291907,0.351166 -0.421399,0.509191c-0.386283,0.31166 -0.737449,0.577229 -1.055693,0.803292c-0.070233,0.059259 -0.140466,0.116324 -0.212894,0.168999c-2.201372,1.692181 -4.63978,3.046365 -7.317421,4.062551c-0.884499,0.25679 -1.786557,0.511385 -2.706173,0.759396c-2.635939,0.730864 -5.271879,1.165432 -7.910013,1.312483l-0.041701,0c-3.535802,0.250206 -7.047462,-0.032922 -10.532784,-0.847188c-0.098765,-0.028532 -0.199726,-0.05487 -0.296296,-0.083402c-0.509191,-0.094376 -1.018381,-0.190946 -1.523182,-0.296296c-0.504801,-0.162414 -1.000823,-0.329218 -1.479287,-0.509191c1.944581,-1.071056 3.634568,-2.550343 5.074348,-4.440055c0.024143,-0.043896 0.05048,-0.085597 0.087791,-0.125103c1.874348,-2.497668 3.088066,-5.502332 3.634568,-9.007407c1.161042,0.482853 2.853223,1.215912 5.076543,2.196982c1.488066,0.660631 2.980521,0.702332 4.48395,0.129492c1.492455,-0.586008 2.563511,-1.613169 3.213169,-3.09026c0.662826,-1.483676 0.704527,-2.976131 0.129492,-4.48395c-0.588203,-1.490261 -1.615363,-2.561317 -3.088066,-3.210974c-5.155555,-2.289163 -8.272153,-3.50288 -9.347599,-3.638957c-0.182167,-0.021948 -0.366529,-0.035117 -0.548697,-0.043896c-0.219479,-0.019753 -0.430178,-0.032922 -0.634294,-0.043896c-0.030727,-0.10096 -0.057064,-0.20192 -0.085597,-0.294101c-0.013169,-0.065844 -0.028532,-0.136077 -0.043896,-0.2107c-0.62332,-2.014815 -1.512208,-4.044993 -2.664472,-6.092729c11.687242,-3.257064 21.469409,-1.59561 29.35089,4.990946zm-104.043889,84.501503l-0.043896,-0.043896c-4.420301,-5.965432 -5.941289,-10.756652 -4.569547,-14.380246c0.757202,-1.426612 0.899863,-2.908093 0.423594,-4.440055c-0.469684,-1.542935 -1.413443,-2.697394 -2.83347,-3.465569c-1.422222,-0.757202 -2.903704,-0.897668 -4.440055,-0.421399c-1.540741,0.471879 -2.697394,1.417833 -3.467764,2.831276c-1.312483,2.111385 -2.074074,4.393964 -2.282579,6.852126c-4.352263,-1.29273 -7.313031,-3.911111 -8.882304,-7.868312l0.041701,0.043896c-2.47572,-7.365706 -3.292181,-14.680932 -2.453772,-21.947872l0,-0.043896c0.928395,-7.411796 2.932236,-14.206858 6.007133,-20.387379l0.041701,-0.039506c2.774211,-5.669135 6.268312,-8.673799 10.488888,-9.009602c1.03155,0.138272 2.087243,0.616735 3.171468,1.437586c-0.855967,2.967352 -1.64609,6.094924 -2.368175,9.3893c-0.337997,1.569273 -0.070233,3.037586 0.803292,4.398354c0.864746,1.369547 2.076269,2.227709 3.636762,2.58107c1.571468,0.340192 3.037586,0.072428 4.398354,-0.803292c1.365158,-0.866941 2.225514,-2.074074 2.578875,-3.638957c3.739917,-17.082029 9.365157,-28.78244 16.875719,-35.103427l0.043896,-0.043896c7.185733,-5.851303 13.517695,-8.884499 18.989299,-9.093004c7.804663,0.118519 14.992592,3.614815 21.570369,10.491083c1.154458,1.198354 2.201372,2.398902 3.129767,3.595061c0.028532,0.039506 0.05487,0.083402 0.083402,0.125103c0.118519,0.164609 0.243621,0.320439 0.381893,0.465295c2.31989,2.956378 3.939643,5.849108 4.863649,8.66941l-0.043896,-0.2107c0.276543,0.97668 0.489438,1.948971 0.634294,2.916872c-0.00439,0.076818 -0.00439,0.144856 0,0.212894c0.048285,0.528944 0.079012,1.077641 0.085597,1.648285c-0.002195,2.712757 -0.594787,4.95583 -1.777778,6.722633l0.083402,-0.083402c-1.018381,1.33882 -2.455967,1.973114 -4.312757,1.902881c-0.849383,0.010974 -1.668038,-0.089986 -2.453772,-0.296296l-0.127298,-0.043896l-0.043896,0c-1.742661,-0.592593 -3.377778,-1.665844 -4.905349,-3.210974l-0.041701,0c-3.757476,-3.720164 -6.492181,-6.386831 -8.206309,-7.997805c-0.237037,-0.555281 -0.577229,-1.073251 -1.013992,-1.562689c-1.000823,-1.110562 -2.240878,-1.744856 -3.722359,-1.902881c-1.488066,-0.164609 -2.840055,0.184362 -4.060356,1.057887c-1.209328,0.884499 -1.970919,2.056516 -2.284774,3.509465c-0.610151,2.085048 -0.285322,4.916323 0.972291,8.502606l0.043896,0.085597c0.621125,1.694376 0.972291,2.934431 1.057887,3.720164c-0.111934,3.634568 -1.602195,7.398628 -4.48395,11.294375l-0.043896,0.039506c-2.714952,3.564334 -5.522085,5.640603 -8.417009,6.217832c-1.586831,0.212894 -2.868587,0.961317 -3.849657,2.240878c-0.989849,1.281756 -1.387106,2.719341 -1.18299,4.314952c0.212894,1.586831 0.959122,2.868587 2.240878,3.849657c1.281756,0.987654 2.719341,1.384911 4.317146,1.18299c5.144581,-0.482853 10.006035,-3.399725 14.590946,-8.752811c-0.085597,0.763786 -0.129492,1.551715 -0.129492,2.365981c0,3.353635 0.603566,6.49657 1.819479,9.433196c-0.41701,0.237037 -0.82524,0.493827 -1.229081,0.761591c-4.848285,2.951989 -7.27133,7.727846 -7.273525,14.33635c-0.008779,0.645267 0.00439,1.279561 0.043896,1.902881c-3.711385,0.502606 -6.869684,2.390123 -9.472702,5.669135l-0.041701,0.041701c-2.763237,3.325103 -4.143758,7.523731 -4.145953,12.604663c-0.019753,1.268587 0.107545,2.537174 0.379698,3.805761c-8.647462,0.678189 -15.049656,-1.466118 -19.193414,-6.428532zm49.82167,18.695198c-4.455418,-0.096571 -8.783539,-2.030178 -12.986556,-5.796433l0,0.043896c-1.85679,-1.694376 -3.336077,-3.360219 -4.440055,-4.988751l-0.083402,-0.129492c-0.072428,-0.107545 -0.142661,-0.20631 -0.212894,-0.296296c-1.020576,-1.648285 -1.556104,-3.283402 -1.606584,-4.905349c-0.002195,-2.11358 0.51797,-3.880384 1.567078,-5.285048l0.041701,-0.043896c0.711111,-0.902058 1.586831,-1.382716 2.622771,-1.437586c0.263374,-0.00439 0.476269,-0.00439 0.634294,0c0.094376,0.037311 0.193141,0.079012 0.296296,0.125103c0.331413,0.168999 0.671605,0.309465 1.016186,0.423594c2.210151,3.118793 5.298216,5.910562 9.262002,8.375308l0.043896,0.039506c4.883402,2.965158 10.043346,4.89657 15.479834,5.796433c0.133882,0.199726 0.289712,0.395062 0.465295,0.592593l-0.041701,0.043896c-0.05487,1.854595 -0.844993,3.458985 -2.37037,4.819753c-2.238683,1.657064 -5.438683,2.53059 -9.599999,2.624966l-0.087791,0l0,-0.002195z"/>
   <text transform="matrix(2.194787236071093,0,0,2.194787236071093,0,0) " id="svg_5" font-family="'Helvetica Neue', Helvetica, Arial-Unicode, Arial, Sans-serif" font-weight="bold" font-size="5px" fill="#000000" y="94.806502" x="2.665917">Created by Cristiano Zoucas</text>
   <text transform="matrix(2.194787236071093,0,0,2.194787236071093,0,0) " id="svg_6" font-family="'Helvetica Neue', Helvetica, Arial-Unicode, Arial, Sans-serif" font-weight="bold" font-size="5px" fill="#000000" y="99.806502" x="2.665917">from the Noun Project</text>
  </g>
 </g>
</svg>