<svg width="210" height="137" xmlns="http://www.w3.org/2000/svg">
 <!-- Created with Method Draw - http://github.com/duopixel/Method-Draw/ -->

 <g>
  <title>background</title>
  <rect fill="#fff" id="canvas_background" height="139" width="212" y="-1" x="-1"/>
  <g display="none" overflow="visible" y="0" x="0" height="100%" width="100%" id="canvasGrid">
   <rect fill="url(#gridpattern)" stroke-width="0" y="0" x="0" height="100%" width="100%"/>
  </g>
 </g>
 <g>
  <title>Layer 1</title>
  <g id="svg_7">
   <path id="svg_4" d="m17.192305,88.271967c2.901509,9.060082 10.196981,13.776679 21.893003,14.147599c0.368724,0.013169 0.728669,-0.010974 1.075446,-0.072428c1.003018,1.520988 2.190398,2.984911 3.566529,4.396159c5.135802,5.31358 11.171467,7.953909 18.111384,7.918792c0.702332,0.015364 1.821673,-0.10535 3.347051,-0.35775c0.772565,-0.125103 1.264197,-0.197531 1.479287,-0.217284c0.138272,0 0.265569,0 0.395062,0c1.23786,2.308916 2.978326,4.622222 5.221399,6.948696l0.035117,0.035117c5.396982,5.62524 11.265843,8.384087 17.608778,8.280932c5.537448,-0.024143 10.385733,-1.569273 14.544855,-4.64417c4.784636,-3.518244 7.089163,-7.609327 6.915775,-12.27764c0,-0.079012 0,-0.164609 0,-0.252401c6.057613,-0.20192 11.577503,-1.821673 16.564059,-4.859259l0.037311,-0.039506c6.665569,-4.18107 9.896296,-9.281755 9.685596,-15.302057c0.039506,-2.078464 -0.296296,-4.080109 -1.009602,-6.015912c5.921536,1.110562 11.97037,2.06749 18.148696,2.881756c12.764883,1.674623 21.432097,2.153086 25.997255,1.43978c0.024143,-0.013169 0.048285,-0.026337 0.072428,-0.037311c5.921536,-0.917421 10.47133,-4.218381 13.647187,-9.900685l-0.037311,0.035117c3.349245,-5.596707 3.279012,-11.919889 -0.217284,-18.97613c-2.824691,-6.942112 -11.97037,-10.987105 -27.437035,-12.132784c-0.179973,-0.015364 -0.36214,-0.026337 -0.539918,-0.037311c10.807132,-3.333882 17.38491,-7.525925 19.731137,-12.565157l0.037311,-0.037311c3.775034,-7.021124 4.288614,-12.674896 1.54952,-16.956926c-2.232099,-4.145953 -5.579149,-6.999176 -10.045541,-8.570644l0.070233,0c-3.803566,-1.417833 -8.133881,-2.041152 -12.999725,-1.872154l-0.072428,0c-4.418107,0.039506 -13.252125,2.333059 -26.497666,6.874074c-10.372564,3.551166 -18.978325,7.007956 -25.819477,10.372564c-1.70535,-3.061728 -4.084499,-6.178326 -7.128669,-9.360768c-7.745404,-8.087791 -16.267763,-12.080109 -25.564882,-11.992317c-6.575583,-0.173388 -14.051028,3.129767 -22.43292,9.90288c-4.964609,3.854046 -9.112757,9.793141 -12.462002,17.821672c-2.019204,-1.051303 -4.047188,-1.531961 -6.081755,-1.43978c-7.433744,-0.285322 -13.412345,4.117421 -17.931412,13.214814c-3.072702,6.23978 -5.078738,13.107269 -6.013717,20.598078c-0.961317,7.657613 -0.109739,15.339368 2.556927,23.049656zm72.840599,19.116597l0.039506,0c3.364609,1.762414 6.893827,3.04417 10.583264,3.856241c0.20192,0.41262 0.4631,0.812071 0.792318,1.18738c-0.171193,1.569273 -1.13251,2.995885 -2.881756,4.286419c-2.469136,1.819479 -5.346502,2.717147 -8.643072,2.699588c-3.724554,-0.103155 -7.205486,-1.843621 -10.442798,-5.223594l-0.032922,-0.032922c-2.991495,-3.101234 -4.565157,-6.125651 -4.718793,-9.07764c0,-1.768999 0.441152,-3.268038 1.332236,-4.501509l0.035117,-0.035117c0.607956,-0.733059 1.349794,-1.114952 2.234293,-1.150069c0.41262,-0.002195 0.686968,-0.002195 0.827435,0c0.043896,0.008779 0.076818,0.021948 0.111934,0.037311l-0.144856,0c0.561866,0.276543 1.128121,0.445542 1.692181,0.502606c2.078464,2.818107 5.151166,5.300411 9.215912,7.451303zm-60.455414,-58.363782c2.396708,-4.837311 5.396982,-7.394238 9.003017,-7.672976c0.877915,0.118519 1.779972,0.526749 2.699588,1.224691c-0.728669,2.524005 -1.402469,5.190672 -2.019204,7.99561c-0.287517,1.334431 -0.059259,2.583265 0.686968,3.744307c0.737449,1.163237 1.771193,1.896296 3.09465,2.196982c1.336625,0.289712 2.589849,0.061454 3.746502,-0.682579c1.161042,-0.737449 1.894101,-1.771193 2.199177,-3.09904c3.189026,-14.562413 7.99122,-24.559669 14.399999,-29.991768c6.121262,-4.942661 11.509464,-7.499588 16.168998,-7.672976c6.639231,0.10096 12.760493,3.077092 18.363785,8.930589l0,-0.037311c3.553361,3.715775 5.941289,7.306447 7.163786,10.765431c0.013169,0.037311 0.026337,0.072428 0.039506,0.107545c0.373114,1.334431 0.570645,2.666666 0.575034,3.996708c0,2.286968 -0.493827,4.156927 -1.474897,5.618655c-0.862551,1.114952 -2.078464,1.643896 -3.638957,1.582442c-2.352812,-0.059259 -4.501509,-1.044719 -6.443895,-2.949794c-3.162688,-3.134156 -5.478189,-5.390397 -6.948696,-6.770919c-0.197531,-0.509191 -0.502606,-0.992044 -0.899863,-1.441975c-0.853772,-0.945953 -1.91166,-1.483676 -3.167078,-1.619753c-1.268587,-0.140466 -2.423045,0.160219 -3.458985,0.899863c-1.029355,0.755007 -1.676817,1.75144 -1.942387,2.9893c-0.526749,1.753635 -0.26118,4.178875 0.787929,7.27133c0.030727,0.032922 0.05048,0.070233 0.072428,0.109739c0.531139,1.44417 0.831824,2.499863 0.899863,3.167078c-0.089986,3.09465 -1.384911,6.299039 -3.886968,9.615363c-2.302332,3.033196 -4.703429,4.806584 -7.201097,5.328943c-1.341015,0.197531 -2.42524,0.844993 -3.241701,1.944581c-0.836214,1.108368 -1.156653,2.346228 -0.972291,3.70919c0.197531,1.341015 0.844993,2.423045 1.946776,3.241701c1.110562,0.831824 2.344033,1.156653 3.706996,0.970096c4.894376,-0.533333 9.457338,-3.60823 13.682304,-9.218106c2.941015,-3.886968 4.789026,-7.705898 5.541838,-11.450205c3.50288,2.811522 7.343758,4.192044 11.522633,4.141564c4.95144,-0.048285 8.81646,-1.896296 11.595061,-5.544033l0.039506,-0.072428c2.278189,-2.954184 3.421673,-6.797256 3.421673,-11.522633c0.002195,-0.932785 -0.046091,-1.869959 -0.142661,-2.807133c6.680932,-3.384362 15.286693,-6.876268 25.817282,-10.477914c11.836488,-4.07133 19.685047,-6.195884 23.547872,-6.375857l0.070233,0c3.463374,-0.114129 6.54705,0.318244 9.255418,1.297119l0.072428,0c2.05871,0.733059 3.610425,2.056516 4.641975,3.961591c0.629904,1.848011 0.087791,4.354458 -1.617558,7.525925l0.037311,-0.032922c-2.565706,3.856241 -9.742661,7.144032 -21.533058,9.863374l0.037311,-0.035117c-13.919341,3.153909 -27.037584,6.643621 -39.35912,10.477914c-1.226886,0.386283 -2.161865,1.143484 -2.807133,2.267215c-0.658436,1.123731 -0.849383,2.313306 -0.577229,3.564334c0.294101,1.255418 0.97668,2.249657 2.056516,2.991495c1.055693,0.748422 2.221125,1.03594 3.491906,0.862551c19.024416,-2.67764 34.857611,-3.575308 47.493001,-2.699588c10.482304,0.77476 16.891083,2.971742 19.230726,6.588751c1.784362,3.60823 1.955555,6.830178 0.502606,9.687791l-0.037311,0.035117c-1.527572,2.769821 -3.702606,4.413717 -6.516323,4.933882l0.070233,-0.039506c-4.073525,0.535528 -11.829903,0.05487 -23.260355,-1.437586c-11.803566,-1.551715 -23.133057,-3.636762 -33.988475,-6.263923c-1.009602,-0.331413 -2.065295,-0.583813 -3.171468,-0.757202c-0.089986,-0.015364 -0.171193,-0.026337 -0.248011,-0.037311c-0.443347,-0.046091 -0.913031,-0.096571 -1.406859,-0.142661c-1.360768,-0.142661 -2.57668,0.217284 -3.636762,1.079835c-1.060082,0.869136 -1.663649,1.988477 -1.797531,3.349245c-0.142661,1.358573 0.217284,2.572291 1.077641,3.632373c0.873525,1.064472 1.990672,1.663649 3.349245,1.80192c0.375309,0.039506 0.735254,0.076818 1.079835,0.109739c0.083402,0.015364 0.166804,0.026337 0.252401,0.037311c0.399451,0.076818 0.794513,0.171193 1.18738,0.287517c0.109739,0.048285 0.228258,0.096571 0.359945,0.142661c1.777778,0.616735 3.467764,1.639506 5.076543,3.061728l0.037311,0.037311c2.205761,2.027983 3.35583,4.249108 3.45679,6.661179c-0.208505,2.618381 -1.874348,4.909739 -5.00631,6.878463l0.039506,-0.037311c-3.786008,2.315501 -8.008779,3.465569 -12.674896,3.45679c-5.555006,0.010974 -10.695198,-1.213717 -15.409601,-3.674074l0.035117,0c-4.53443,-2.398902 -6.922359,-5.425514 -7.163786,-9.07325c-0.039506,-1.373937 0.51797,-2.37037 1.65487,-2.991495l-0.035117,0.039506c1.668038,-0.816461 3.840878,-1.224691 6.516323,-1.224691c0.9262,0.111934 2.872976,0.735254 5.833744,1.872154c0.035117,0.013169 0.068038,0.028532 0.107545,0.035117c2.877366,1.18299 4.617832,1.96214 5.221399,2.339643c1.042524,0.906447 2.240878,1.314678 3.601646,1.224691c1.360768,-0.103155 2.488889,-0.680384 3.384362,-1.725103c0.908642,-1.040329 1.314678,-2.240878 1.226886,-3.601646c-0.109739,-1.358573 -0.686968,-2.486694 -1.729492,-3.384362c-0.82524,-0.864746 -3.516049,-2.232099 -8.068038,-4.104252c-0.039506,-0.010974 -0.072428,-0.021948 -0.107545,-0.037311c-4.758299,-1.823868 -7.912208,-2.673251 -9.468312,-2.556927c-4.620027,-0.00439 -8.355555,0.787929 -11.197804,2.376955l-0.039506,0.037311c-4.510288,2.440603 -6.786282,6.318792 -6.841152,11.627983c-3.674074,0.160219 -6.759945,1.784362 -9.251028,4.861454l-0.039506,0.039506c-2.207956,2.717147 -3.382167,6.042249 -3.527023,9.970918c-0.355556,0.046091 -0.763786,0.107545 -1.226886,0.179973l-0.035117,0c-0.776955,0.131687 -1.341015,0.204115 -1.692181,0.217284c-4.196433,-0.032922 -7.857338,-1.665844 -10.982715,-4.894376c-3.017832,-3.09026 -4.637585,-6.595336 -4.857064,-10.513031c-0.068038,-1.373937 -0.607956,-2.521811 -1.624143,-3.45679c-1.011797,-0.93059 -2.203566,-1.360768 -3.56214,-1.297119c-1.371742,0.063649 -2.524005,0.603566 -3.454595,1.617558s-1.362963,2.201372 -1.299314,3.564334c0.035117,0.831824 0.107545,1.648285 0.215089,2.451577c-4.898765,-0.798903 -8.140466,-3.189026 -9.718518,-7.16598c-2.139918,-6.217832 -2.820302,-12.407132 -2.05871,-18.578874c0.787929,-6.34074 2.48011,-12.150342 5.069959,-17.431z"/>
   <text transform="matrix(2.194787236071093,0,0,2.194787236071093,0,0) " id="svg_5" font-family="'Helvetica Neue', Helvetica, Arial-Unicode, Arial, Sans-serif" font-weight="bold" font-size="5px" fill="#000000" y="92.014918" x="1.842245">Created by Cristiano Zoucas</text>
   <text transform="matrix(2.194787236071093,0,0,2.194787236071093,0,0) " id="svg_6" font-family="'Helvetica Neue', Helvetica, Arial-Unicode, Arial, Sans-serif" font-weight="bold" font-size="5px" fill="#000000" y="97.014918" x="1.842245">from the Noun Project</text>
  </g>
 </g>
</svg>